<svg xmlns="http://www.w3.org/2000/svg" viewBox="0 0 141 146"><defs/><path fill="#c42825" d="M13.3 126.4v-89c0-2.4.9-4.5 2.6-6.3 1.7-1.8 3.8-2.6 6.2-2.6h8.8v-6.7c0-3.1 1.1-5.7 3.2-7.9 2.2-2.2 4.7-3.3 7.8-3.3h4.4c3 0 5.6 1.1 7.8 3.3 2.2 2.2 3.2 4.8 3.2 7.9v6.7h26.4v-6.7c0-3.1 1.1-5.7 3.2-7.9 2.2-2.2 4.7-3.3 7.8-3.3h4.4c3 0 5.6 1.1 7.8 3.3 2.2 2.2 3.2 4.8 3.2 7.9v6.7h8.8c2.4 0 4.4.9 6.2 2.6 1.7 1.8 2.6 3.8 2.6 6.3v88.9c0 2.4-.9 4.5-2.6 6.3-1.7 1.8-3.8 2.6-6.2 2.6H22.1c-2.4 0-4.4-.9-6.2-2.6-1.7-1.8-2.6-3.8-2.6-6.2zm8.8 0h96.8V55.2H22.1z"/><path fill="#fff" d="M22.1 55.2h96.8v71.2H22.1z"/></svg>